<svg xmlns="http://www.w3.org/2000/svg" xmlns:xlink="http://www.w3.org/1999/xlink" width="2000" zoomAndPan="magnify" viewBox="0 0 1500 1499.999933" height="2000" preserveAspectRatio="xMidYMid meet" version="1.0"><defs><clipPath id="7b7b238f49"><path d="M 241 101.0625 L 912 101.0625 L 912 1104 L 241 1104 Z M 241 101.0625 " clip-rule="nonzero"/></clipPath><clipPath id="aab5491c84"><path d="M 838 437 L 1259 437 L 1259 1399.3125 L 838 1399.3125 Z M 838 437 " clip-rule="nonzero"/></clipPath><clipPath id="401a6c2c7d"><path d="M 1025 101.0625 L 1238 101.0625 L 1238 318 L 1025 318 Z M 1025 101.0625 " clip-rule="nonzero"/></clipPath></defs><g clip-path="url(#7b7b238f49)"><path fill="#2ba977" d="M 698.789062 101.0625 L 911.265625 101.0625 L 911.265625 1075.308594 C 802.433594 1095.894531 722.316406 1103.992188 635.640625 1103.992188 C 376.136719 1103.753906 241.054688 987.773438 241.054688 764.988281 C 241.054688 550.382812 384.339844 411.078125 606.378906 411.078125 C 640.84375 411.078125 667.085938 413.789062 698.789062 421.917969 Z M 706.246094 597.5 C 681.359375 589.359375 660.863281 586.648438 634.605469 586.648438 C 527.144531 586.648438 465.074219 652.238281 465.074219 767.140625 C 465.074219 879.054688 524.410156 940.855469 633.242188 940.855469 C 656.753906 940.855469 675.898438 939.496094 706.246094 935.429688 Z M 706.246094 597.5 " fill-opacity="1" fill-rule="nonzero"/></g><g clip-path="url(#aab5491c84)"><path fill="#2ba977" d="M 1258.730469 437.238281 L 1258.730469 925.019531 C 1258.730469 1093.027344 1246.128906 1173.816406 1209.242188 1243.4375 C 1174.785156 1310.425781 1129.363281 1352.636719 1035.566406 1399.273438 L 838.445312 1306.316406 C 932.242188 1262.707031 977.621094 1224.167969 1006.613281 1165.359375 C 1036.964844 1105.234375 1046.535156 1035.613281 1046.535156 852.40625 L 1046.535156 437.238281 L 1258.730469 437.242188 Z M 1258.730469 437.238281 " fill-opacity="1" fill-rule="nonzero"/></g><g clip-path="url(#401a6c2c7d)"><path fill="#2ba977" d="M 1025.117188 101.0625 L 1237.59375 101.0625 L 1237.59375 317.042969 L 1025.117188 317.042969 Z M 1025.117188 101.0625 " fill-opacity="1" fill-rule="nonzero"/></g></svg>