<svg xmlns="http://www.w3.org/2000/svg" xmlns:xlink="http://www.w3.org/1999/xlink" width="2000" zoomAndPan="magnify" viewBox="0 0 1500 1499.999933" height="2000" preserveAspectRatio="xMidYMid meet" version="1.0"><defs><clipPath id="6b93c8459e"><path d="M 150 247.5 L 1350 247.5 L 1350 1252.5 L 150 1252.5 Z M 150 247.5 " clip-rule="nonzero"/></clipPath></defs><path fill="#98ccfd" d="M 1060.839844 852.492188 L 175.824219 852.492188 C 175.824219 852.492188 175.8125 1065.328125 175.8125 1065.351562 C 175.8125 1154.601562 373.933594 1226.953125 618.332031 1226.953125 C 862.726562 1226.953125 1060.847656 1154.601562 1060.847656 1065.351562 C 1060.847656 1065.328125 1060.839844 852.492188 1060.839844 852.492188 Z M 1060.839844 852.492188 " fill-opacity="1" fill-rule="nonzero"/><path fill="#dff0fe" d="M 1060.839844 643.460938 L 175.824219 643.460938 C 175.824219 643.460938 175.8125 856.292969 175.8125 856.324219 C 175.8125 945.574219 373.933594 1017.925781 618.332031 1017.925781 C 862.726562 1017.925781 1060.847656 945.574219 1060.847656 856.324219 C 1060.847656 856.292969 1060.839844 643.460938 1060.839844 643.460938 Z M 1060.839844 643.460938 " fill-opacity="1" fill-rule="nonzero"/><path fill="#ffffff" d="M 1060.839844 434.6875 L 175.824219 434.6875 C 175.824219 434.6875 175.8125 647.523438 175.8125 647.550781 C 175.8125 736.800781 373.933594 809.152344 618.332031 809.152344 C 862.726562 809.152344 1060.847656 736.800781 1060.847656 647.550781 C 1060.847656 647.523438 1060.839844 434.6875 1060.839844 434.6875 Z M 1060.839844 434.6875 " fill-opacity="1" fill-rule="nonzero"/><path fill="#ffffff" d="M 618.332031 596.210938 C 862.726562 596.210938 1060.847656 523.859375 1060.847656 434.605469 C 1060.847656 345.355469 862.726562 273.003906 618.332031 273.003906 C 373.933594 273.003906 175.8125 345.355469 175.8125 434.605469 C 175.8125 523.859375 373.933594 596.210938 618.332031 596.210938 Z M 618.332031 596.210938 " fill-opacity="1" fill-rule="nonzero"/><path fill="#ffffff" d="M 1241.929688 698.128906 L 700.589844 698.128906 C 655.160156 698.128906 618.332031 734.957031 618.332031 780.386719 L 618.332031 1039.523438 C 618.332031 1084.953125 655.160156 1121.78125 700.589844 1121.78125 L 1241.929688 1121.78125 C 1287.359375 1121.78125 1324.1875 1084.953125 1324.1875 1039.523438 L 1324.1875 780.386719 C 1324.1875 734.957031 1287.359375 698.128906 1241.929688 698.128906 Z M 1241.929688 698.128906 " fill-opacity="1" fill-rule="nonzero"/><path fill="#dff0fe" d="M 990.648438 811.054688 L 950.195312 811.054688 C 933.179688 811.054688 919.382812 824.847656 919.382812 841.867188 L 919.382812 950.191406 C 919.382812 967.210938 933.179688 981.003906 950.195312 981.003906 L 990.648438 981.003906 C 1007.667969 981.003906 1021.460938 967.210938 1021.460938 950.191406 L 1021.460938 841.867188 C 1021.460938 824.847656 1007.667969 811.054688 990.648438 811.054688 Z M 990.648438 811.054688 " fill-opacity="1" fill-rule="nonzero"/><g clip-path="url(#6b93c8459e)"><path fill="#2a5075" d="M 1241.921875 672.597656 L 1086.363281 672.597656 L 1086.363281 434.699219 C 1086.363281 434.683594 1086.355469 434.675781 1086.355469 434.660156 C 1086.355469 434.640625 1086.363281 434.621094 1086.363281 434.597656 C 1086.363281 313.058594 845.226562 247.488281 618.328125 247.488281 C 391.429688 247.488281 150.292969 313.058594 150.292969 434.597656 C 150.292969 434.632812 150.304688 434.664062 150.304688 434.699219 L 150.292969 1065.355469 C 150.292969 1186.902344 391.429688 1252.46875 618.328125 1252.46875 C 803.5625 1252.46875 968.800781 1211.308594 1042.765625 1147.300781 L 1241.921875 1147.300781 C 1301.359375 1147.300781 1349.707031 1098.953125 1349.707031 1039.515625 L 1349.707031 780.382812 C 1349.707031 720.945312 1301.359375 672.597656 1241.921875 672.597656 Z M 700.59375 672.597656 C 641.15625 672.597656 592.808594 720.945312 592.808594 780.382812 L 592.808594 783.160156 C 361.191406 778.328125 201.46875 709.441406 201.34375 647.628906 L 201.339844 522.71875 C 283.941406 587.40625 454.597656 621.734375 618.328125 621.734375 C 782.066406 621.734375 952.726562 587.402344 1035.324219 522.710938 L 1035.324219 647.550781 C 1035.324219 655.675781 1032.253906 664.066406 1026.394531 672.597656 Z M 201.34375 856.394531 L 201.339844 735.488281 C 279.761719 796.855469 437.433594 830.863281 592.808594 834.203125 L 592.808594 991.949219 C 361.375 987.070312 201.472656 917.914062 201.34375 856.394531 Z M 618.328125 298.527344 C 856.984375 298.527344 1035.324219 370.375 1035.324219 434.597656 C 1035.324219 498.847656 856.984375 570.695312 618.328125 570.695312 C 379.667969 570.695312 201.332031 498.847656 201.332031 434.597656 C 201.332031 370.375 379.667969 298.527344 618.328125 298.527344 Z M 618.328125 1201.429688 C 379.667969 1201.429688 201.332031 1129.582031 201.332031 1065.355469 L 201.339844 944.054688 C 279.945312 1005.523438 438.101562 1039.71875 593.160156 1043.007812 C 595.050781 1100.796875 642.351562 1147.300781 700.59375 1147.300781 L 943.859375 1147.300781 C 864.953125 1180.773438 745.917969 1201.429688 618.328125 1201.429688 Z M 1298.667969 1039.515625 C 1298.667969 1070.816406 1273.214844 1096.261719 1241.921875 1096.261719 L 700.59375 1096.261719 C 669.304688 1096.261719 643.847656 1070.816406 643.847656 1039.515625 L 643.847656 780.382812 C 643.847656 749.082031 669.304688 723.636719 700.59375 723.636719 L 1241.921875 723.636719 C 1273.214844 723.636719 1298.667969 749.082031 1298.667969 780.382812 Z M 746.222656 841.039062 L 746.222656 866.035156 C 746.222656 868.503906 748.230469 870.5 750.699219 870.5 L 792.777344 870.5 C 823.394531 870.5 848.300781 895.394531 848.300781 926.023438 L 848.300781 950.996094 C 848.300781 981.625 823.394531 1006.515625 792.777344 1006.515625 L 750.699219 1006.515625 C 720.082031 1006.515625 695.183594 981.625 695.183594 950.996094 L 695.183594 944.339844 C 695.183594 930.234375 706.613281 918.820312 720.703125 918.820312 C 734.800781 918.820312 746.222656 930.234375 746.222656 944.339844 L 746.222656 950.996094 C 746.222656 953.460938 748.230469 955.480469 750.699219 955.480469 L 792.777344 955.480469 C 795.246094 955.480469 797.261719 953.460938 797.261719 950.996094 L 797.261719 926.023438 C 797.261719 923.558594 795.246094 921.539062 792.777344 921.539062 L 750.699219 921.539062 C 720.082031 921.539062 695.183594 896.640625 695.183594 866.035156 L 695.183594 841.039062 C 695.183594 810.4375 720.082031 785.539062 750.699219 785.539062 L 792.777344 785.539062 C 823.394531 785.539062 848.300781 810.4375 848.300781 841.039062 C 848.300781 855.148438 836.875 866.558594 822.78125 866.558594 C 808.691406 866.558594 797.261719 855.148438 797.261719 841.039062 C 797.261719 838.574219 795.246094 836.578125 792.777344 836.578125 L 750.699219 836.578125 C 748.230469 836.578125 746.222656 838.574219 746.222656 841.039062 Z M 1046.972656 950.195312 L 1046.972656 841.867188 C 1046.972656 810.8125 1021.707031 785.539062 990.652344 785.539062 L 950.191406 785.539062 C 919.128906 785.539062 893.859375 810.8125 893.859375 841.867188 L 893.859375 950.195312 C 893.859375 981.25 919.128906 1006.515625 950.191406 1006.515625 L 990.652344 1006.515625 C 991.875 1006.515625 993.011719 1006.238281 994.214844 1006.160156 C 1010.007812 1021.941406 1033.886719 1028.277344 1055.644531 1021.800781 C 1077.152344 1012.613281 1043.308594 990.601562 1038.867188 978.855469 C 1043.898438 970.429688 1046.972656 960.703125 1046.972656 950.195312 Z M 944.898438 950.195312 L 944.898438 841.867188 C 944.898438 838.949219 947.277344 836.578125 950.191406 836.578125 L 990.652344 836.578125 C 993.570312 836.578125 995.933594 838.949219 995.933594 841.867188 L 995.933594 950.195312 C 995.933594 953.113281 993.570312 955.480469 990.652344 955.480469 L 950.191406 955.480469 C 947.277344 955.480469 944.898438 953.113281 944.898438 950.195312 Z M 1251.128906 950.195312 C 1251.128906 981.25 1225.863281 1006.515625 1194.808594 1006.515625 L 1154.347656 1006.515625 C 1123.285156 1006.515625 1098.011719 981.25 1098.011719 950.195312 L 1098.011719 811.058594 C 1098.011719 796.957031 1109.441406 785.539062 1123.53125 785.539062 C 1137.628906 785.539062 1149.050781 796.957031 1149.050781 811.058594 L 1149.050781 950.195312 C 1149.050781 953.113281 1151.433594 955.480469 1154.347656 955.480469 L 1194.808594 955.480469 C 1197.726562 955.480469 1200.089844 953.113281 1200.089844 950.195312 C 1200.089844 936.09375 1211.519531 924.675781 1225.609375 924.675781 C 1239.707031 924.675781 1251.128906 936.09375 1251.128906 950.195312 Z M 448.8125 434.597656 C 448.8125 432.132812 450.804688 430.136719 453.273438 430.136719 L 504.3125 430.136719 C 506.78125 430.136719 508.773438 432.132812 508.773438 434.597656 C 508.773438 437.066406 506.78125 439.058594 504.3125 439.058594 L 453.273438 439.058594 C 450.804688 439.058594 448.8125 437.066406 448.8125 434.597656 Z M 576.414062 434.597656 C 576.414062 432.132812 578.402344 430.136719 580.871094 430.136719 L 631.910156 430.136719 C 634.375 430.136719 636.371094 432.132812 636.371094 434.597656 C 636.371094 437.066406 634.375 439.058594 631.910156 439.058594 L 580.871094 439.058594 C 578.402344 439.058594 576.414062 437.066406 576.414062 434.597656 Z M 704.007812 434.597656 C 704.007812 432.132812 706 430.136719 708.46875 430.136719 L 759.507812 430.136719 C 761.972656 430.136719 763.96875 432.132812 763.96875 434.597656 C 763.96875 437.066406 761.972656 439.058594 759.507812 439.058594 L 708.46875 439.058594 C 706 439.058594 704.007812 437.066406 704.007812 434.597656 Z M 704.007812 434.597656 " fill-opacity="1" fill-rule="nonzero"/></g></svg>